<?xml version="1.0" encoding="utf-8"?>
<!-- Generator: Adobe Illustrator 27.6.1, SVG Export Plug-In . SVG Version: 6.00 Build 0)  -->
<svg version="1.1" id="Layer_1" xmlns="http://www.w3.org/2000/svg" xmlns:xlink="http://www.w3.org/1999/xlink" x="0px" y="0px"
	 width="281.9px" height="55.6px" viewBox="11 11 260.9 48.6" style="enable-background:new 0 0 281.9 70.6;" xml:space="preserve">
<g>
	<polygon style="fill:#373A36;" points="76,26 60.8,26 60.8,11 109.2,11 109.2,26 94,26 94,59.6 76,59.6 	"/>
	<polygon style="fill:#373A36;" points="171.1,11 190.7,11 205.4,33.9 205.4,11 222.7,11 222.7,59.6 203.1,59.6 188.4,36.7 
		188.4,59.6 171.1,59.6 	"/>
	<polygon style="fill:#373A36;" points="229,11 229,59.6 271.4,59.6 271.4,46.4 247,46.4 247,41.2 271.4,41.2 271.4,29.4 247,29.4 
		247,24.2 271.4,24.2 271.4,11 	"/>
	<path style="fill:#373A36;" d="M165.2,25.3c-1.3-3.1-3.3-5.8-5.8-8.2c-2.5-2.3-5.5-4.1-9.1-5.5c-3.6-1.3-7.6-2-12-2s-8.4,0.7-12,2
		s-6.6,3.2-9.1,5.5s-4.4,5-5.8,8.2c-1.3,3.1-2,6.5-2,10c0,3.6,0.7,6.9,2,10s3.3,5.8,5.8,8.2s5.5,4.1,9.1,5.5c3.6,1.3,7.6,2,12,2
		s8.4-0.7,12-2s6.6-3.2,9.1-5.5s4.4-5,5.8-8.2c1.3-3.1,2-6.5,2-10C167.2,31.7,166.6,28.4,165.2,25.3 M138.4,45.6
		c-5.9,0-10.7-4.6-10.7-10.3S132.5,25,138.4,25s10.7,4.6,10.7,10.3S144.3,45.6,138.4,45.6"/>
	<path style="fill:#373A36;" d="M31,25.4C30.9,25.4,30.9,25.4,31,25.4c0-0.1-0.1-0.1-0.1-0.2c0,0,0-0.1-0.1-0.1l0,0
		c-0.1-0.2-0.1-0.3-0.1-0.5c0-0.1,0-0.3,0.1-0.4c0.1-0.4,0.3-0.8,0.7-1.1c0.1-0.1,0.2-0.1,0.3-0.2l0,0l0,0c0.9-0.7,2.4-1.1,4-1.1
		c5.6,0,5.4,3.7,5.4,4.3h17.7c-0.8-3-2.1-5.8-4-8.2c-0.8-1-1.8-2-3-3s-2.6-1.9-4.2-2.6c-1.6-0.8-3.5-1.4-5.6-1.8
		c-2.1-0.5-4.4-0.7-7-0.7c-3.8,0-7.1,0.4-10,1.3s-5.3,2-7.2,3.5c-2,1.2-3.5,2.9-4.5,4.7c-1,1.8-1.5,3.7-1.5,5.6
		c0,2.3,0.4,4.2,1.3,5.8c0.8,1.6,2,3,3.4,4.2c1.4,1.2,3,2.1,4.8,2.9c1.8,0.8,3.6,1.4,5.4,1.9c1.8,0.5,3.6,1,5.4,1.4
		c1.8,0.4,3.4,0.8,4.8,1.3c1.4,0.4,2.5,0.9,3.4,1.4c0.8,0.5,1.3,1.2,1.3,1.9s-0.6,1.5-1.3,2c-1.1,0.8-2.8,1.3-4.8,1.3
		c-6.4,0-7.1-4.7-7.1-5.7h-18c0.8,3.3,2.2,6.3,4.3,8.9c0.9,1.1,1.9,2.2,3.2,3.3s2.8,2,4.5,2.8c1.7,0.8,3.7,1.5,6,2s4.8,0.8,7.7,0.8
		c3.9,0,7.4-0.5,10.5-1.4c3-0.9,5.6-2.2,7.6-3.7s3.5-3.3,4.6-5.3c1-2,1.6-4.1,1.6-6.3C60.3,28.1,33.7,30.5,31,25.4"/>
</g>
</svg>
